<svg xmlns="http://www.w3.org/2000/svg" xmlns:xlink="http://www.w3.org/1999/xlink" width="500" zoomAndPan="magnify" viewBox="0 0 375 374.999991" height="500" preserveAspectRatio="xMidYMid meet" version="1.0"><defs><g/><clipPath id="4d9c801a2d"><path d="M 116.4375 62.574219 L 258.9375 62.574219 L 258.9375 212.574219 L 116.4375 212.574219 Z M 116.4375 62.574219 " clip-rule="nonzero"/></clipPath></defs><g clip-path="url(#4d9c801a2d)"><path fill="#ffffff" d="M 147.957031 62.90625 C 147.417969 62.894531 146.867188 62.964844 146.324219 63.132812 L 146.316406 63.132812 L 145.980469 63.234375 C 145.980469 63.234375 145.976562 63.234375 145.976562 63.234375 C 128.730469 68.523438 116.945312 84.441406 116.945312 102.4375 L 116.945312 104.292969 C 116.945312 118.546875 125.996094 135 137.90625 143.183594 L 137.90625 175.992188 C 137.90625 196.164062 154.359375 212.574219 174.585938 212.574219 L 200.789062 212.574219 C 221.015625 212.574219 237.46875 196.164062 237.46875 175.992188 L 237.46875 143.183594 C 249.378906 135 258.429688 118.546875 258.429688 104.300781 L 258.429688 102.441406 C 258.429688 84.445312 246.644531 68.523438 229.398438 63.234375 C 229.398438 63.234375 229.394531 63.234375 229.394531 63.234375 L 229.058594 63.132812 L 229.050781 63.132812 C 226.875 62.464844 224.613281 63.347656 223.390625 64.902344 C 222.171875 66.457031 221.847656 68.863281 223.019531 70.8125 C 223.019531 70.8125 223.023438 70.8125 223.023438 70.8125 L 226.078125 75.894531 L 223.304688 77.738281 C 220.421875 79.65625 220.226562 83.980469 222.921875 86.148438 C 223.617188 86.710938 224.304688 87.3125 224.390625 87.402344 C 229.125 92.210938 230.757812 98.796875 229.839844 105.671875 C 228.976562 112.136719 225.625 118.613281 220.734375 123.628906 C 218.203125 122.828125 204.164062 118.5 187.691406 118.5 C 170.847656 118.5 157.140625 122.613281 154.640625 123.386719 C 149.742188 118.375 146.394531 111.9375 145.535156 105.53125 C 144.621094 98.71875 146.242188 92.199219 150.980469 87.402344 C 151.0625 87.316406 151.753906 86.710938 152.453125 86.148438 C 155.148438 83.980469 154.953125 79.648438 152.070312 77.734375 L 149.296875 75.894531 L 152.351562 70.8125 C 153.523438 68.863281 153.210938 66.457031 151.988281 64.902344 C 151.074219 63.738281 149.570312 62.945312 147.957031 62.90625 Z M 147.851562 68.128906 L 143.519531 75.34375 C 143.347656 75.632812 143.234375 75.941406 143.179688 76.273438 C 143.125 76.605469 143.136719 76.933594 143.210938 77.261719 C 143.285156 77.589844 143.417969 77.890625 143.605469 78.167969 C 143.796875 78.445312 144.03125 78.675781 144.3125 78.863281 L 149.160156 82.082031 C 148.410156 82.683594 147.78125 83.191406 147.246094 83.734375 C 141.25 89.8125 139.253906 98.136719 140.339844 106.222656 C 141.425781 114.3125 145.507812 122.28125 151.828125 128.238281 C 152.179688 128.566406 152.585938 128.78125 153.054688 128.886719 C 153.519531 128.992188 153.984375 128.972656 154.4375 128.824219 C 154.4375 128.824219 170.269531 123.726562 187.691406 123.726562 C 204.605469 123.726562 220.921875 129.070312 220.921875 129.070312 C 221.378906 129.21875 221.839844 129.242188 222.3125 129.136719 C 222.78125 129.035156 223.191406 128.816406 223.539062 128.488281 C 229.871094 122.527344 233.945312 114.503906 235.035156 106.363281 C 236.121094 98.222656 234.132812 89.835938 228.128906 83.742188 C 228.128906 83.738281 228.128906 83.738281 228.128906 83.734375 C 227.59375 83.191406 226.964844 82.691406 226.214844 82.085938 L 231.0625 78.863281 C 231.34375 78.675781 231.578125 78.445312 231.769531 78.167969 C 231.957031 77.890625 232.089844 77.589844 232.164062 77.261719 C 232.238281 76.933594 232.25 76.605469 232.195312 76.273438 C 232.140625 75.941406 232.027344 75.632812 231.855469 75.34375 L 227.523438 68.128906 L 227.859375 68.230469 L 227.863281 68.230469 C 242.929688 72.855469 253.191406 86.71875 253.191406 102.441406 L 253.191406 104.300781 C 253.191406 116.652344 243.964844 133.257812 233.464844 139.804688 C 233.078125 140.042969 232.777344 140.359375 232.558594 140.75 C 232.339844 141.144531 232.230469 141.566406 232.230469 142.019531 L 232.230469 175.992188 C 232.230469 193.339844 218.183594 207.347656 200.789062 207.347656 L 174.585938 207.347656 C 157.191406 207.347656 143.144531 193.339844 143.144531 175.992188 L 143.144531 142.019531 C 143.144531 141.566406 143.035156 141.144531 142.816406 140.75 C 142.597656 140.359375 142.296875 140.042969 141.910156 139.804688 C 131.410156 133.257812 122.183594 116.648438 122.183594 104.292969 L 122.183594 102.4375 C 122.183594 86.714844 132.445312 72.855469 147.511719 68.230469 Z M 187.550781 100.179688 C 187.203125 100.1875 186.871094 100.261719 186.550781 100.402344 C 186.234375 100.542969 185.957031 100.738281 185.714844 100.988281 C 185.476562 101.238281 185.292969 101.523438 185.167969 101.847656 C 185.042969 102.167969 184.984375 102.503906 184.992188 102.851562 L 185.035156 108.078125 C 185.035156 108.425781 185.101562 108.761719 185.234375 109.085938 C 185.367188 109.40625 185.558594 109.691406 185.808594 109.9375 C 186.054688 110.183594 186.34375 110.375 186.667969 110.507812 C 186.988281 110.636719 187.328125 110.703125 187.675781 110.699219 C 188.027344 110.699219 188.363281 110.628906 188.6875 110.492188 C 189.007812 110.355469 189.289062 110.160156 189.535156 109.910156 C 189.78125 109.660156 189.964844 109.371094 190.09375 109.046875 C 190.222656 108.722656 190.285156 108.386719 190.277344 108.035156 L 190.230469 102.808594 C 190.234375 102.457031 190.167969 102.117188 190.03125 101.789062 C 189.894531 101.464844 189.699219 101.175781 189.449219 100.929688 C 189.195312 100.683594 188.902344 100.492188 188.574219 100.363281 C 188.246094 100.234375 187.902344 100.171875 187.550781 100.179688 Z M 200.984375 100.5625 C 200.660156 100.578125 200.347656 100.652344 200.050781 100.785156 C 199.757812 100.914062 199.492188 101.09375 199.261719 101.320312 C 199.035156 101.550781 198.851562 101.8125 198.71875 102.105469 C 198.585938 102.402344 198.511719 102.710938 198.496094 103.035156 L 198.148438 108.25 C 198.109375 108.605469 198.140625 108.949219 198.246094 109.292969 C 198.351562 109.632812 198.515625 109.9375 198.746094 110.210938 C 198.976562 110.484375 199.25 110.699219 199.566406 110.859375 C 199.886719 111.019531 200.222656 111.113281 200.578125 111.136719 C 200.933594 111.160156 201.28125 111.113281 201.617188 110.996094 C 201.953125 110.878906 202.253906 110.699219 202.519531 110.460938 C 202.78125 110.222656 202.988281 109.941406 203.136719 109.617188 C 203.285156 109.292969 203.363281 108.953125 203.371094 108.597656 L 203.71875 103.382812 C 203.75 103.007812 203.703125 102.644531 203.574219 102.289062 C 203.445312 101.9375 203.25 101.625 202.988281 101.355469 C 202.726562 101.085938 202.421875 100.882812 202.070312 100.742188 C 201.722656 100.605469 201.359375 100.546875 200.984375 100.5625 Z M 174.109375 100.804688 C 173.742188 100.804688 173.386719 100.878906 173.050781 101.027344 C 172.710938 101.179688 172.417969 101.390625 172.167969 101.664062 C 171.921875 101.9375 171.738281 102.25 171.625 102.601562 C 171.507812 102.949219 171.46875 103.308594 171.507812 103.675781 L 171.957031 108.882812 C 171.984375 109.230469 172.082031 109.554688 172.242188 109.863281 C 172.402344 110.171875 172.613281 110.4375 172.878906 110.660156 C 173.148438 110.882812 173.445312 111.046875 173.777344 111.152344 C 174.109375 111.257812 174.449219 111.292969 174.792969 111.265625 C 175.140625 111.234375 175.46875 111.140625 175.777344 110.980469 C 176.085938 110.820312 176.351562 110.609375 176.574219 110.34375 C 176.800781 110.078125 176.964844 109.777344 177.070312 109.449219 C 177.171875 109.117188 177.210938 108.78125 177.179688 108.433594 L 176.726562 103.226562 C 176.703125 102.898438 176.617188 102.585938 176.476562 102.285156 C 176.332031 101.988281 176.140625 101.726562 175.894531 101.503906 C 175.652344 101.277344 175.378906 101.105469 175.070312 100.984375 C 174.761719 100.863281 174.441406 100.804688 174.109375 100.804688 Z M 214.414062 102.035156 C 214.113281 102.050781 213.824219 102.117188 213.546875 102.238281 C 213.265625 102.355469 213.015625 102.515625 212.792969 102.71875 C 212.570312 102.921875 212.390625 103.160156 212.25 103.425781 C 212.109375 103.691406 212.015625 103.976562 211.976562 104.273438 L 211.167969 109.4375 C 211.097656 109.789062 211.101562 110.136719 211.175781 110.480469 C 211.25 110.828125 211.386719 111.148438 211.59375 111.4375 C 211.796875 111.730469 212.050781 111.96875 212.351562 112.15625 C 212.652344 112.34375 212.980469 112.464844 213.332031 112.519531 C 213.683594 112.574219 214.03125 112.558594 214.375 112.472656 C 214.722656 112.386719 215.035156 112.238281 215.320312 112.023438 C 215.601562 111.808594 215.832031 111.546875 216.011719 111.242188 C 216.1875 110.933594 216.296875 110.601562 216.339844 110.25 L 217.152344 105.085938 C 217.1875 104.890625 217.199219 104.695312 217.1875 104.5 C 217.175781 104.304688 217.144531 104.109375 217.089844 103.921875 C 217.035156 103.730469 216.960938 103.550781 216.863281 103.378906 C 216.769531 103.207031 216.65625 103.046875 216.523438 102.898438 C 216.394531 102.753906 216.246094 102.621094 216.085938 102.507812 C 215.925781 102.394531 215.753906 102.300781 215.570312 102.226562 C 215.386719 102.152344 215.199219 102.097656 215.003906 102.066406 C 214.808594 102.03125 214.613281 102.023438 214.414062 102.035156 Z M 160.6875 102.570312 C 160.492188 102.570312 160.300781 102.589844 160.113281 102.632812 C 159.921875 102.671875 159.742188 102.734375 159.566406 102.816406 C 159.390625 102.898438 159.226562 103 159.074219 103.117188 C 158.917969 103.238281 158.78125 103.371094 158.660156 103.519531 C 158.535156 103.667969 158.429688 103.828125 158.34375 104.003906 C 158.253906 104.175781 158.1875 104.355469 158.140625 104.542969 C 158.089844 104.730469 158.066406 104.921875 158.058594 105.113281 C 158.054688 105.308594 158.070312 105.5 158.109375 105.6875 L 159.046875 110.832031 C 159.105469 111.175781 159.234375 111.492188 159.421875 111.78125 C 159.609375 112.074219 159.847656 112.316406 160.132812 112.515625 C 160.417969 112.710938 160.730469 112.847656 161.070312 112.921875 C 161.414062 112.992188 161.753906 113 162.09375 112.9375 C 162.4375 112.875 162.753906 112.75 163.046875 112.5625 C 163.339844 112.375 163.585938 112.136719 163.78125 111.851562 C 163.980469 111.566406 164.113281 111.253906 164.1875 110.914062 C 164.261719 110.574219 164.265625 110.234375 164.203125 109.894531 L 163.261719 104.75 C 163.210938 104.445312 163.109375 104.160156 162.957031 103.890625 C 162.804688 103.625 162.609375 103.390625 162.375 103.191406 C 162.136719 102.992188 161.875 102.839844 161.585938 102.730469 C 161.296875 102.625 160.996094 102.570312 160.6875 102.570312 Z M 164.105469 157.699219 C 163.246094 157.699219 162.394531 157.796875 161.550781 158 C 160.707031 158.199219 159.886719 158.496094 159.09375 158.890625 C 158.296875 159.285156 157.542969 159.769531 156.828125 160.339844 C 156.113281 160.910156 155.449219 161.5625 154.84375 162.289062 C 154.234375 163.019531 153.691406 163.808594 153.214844 164.664062 C 152.734375 165.523438 152.332031 166.425781 152.003906 167.375 C 151.671875 168.328125 151.425781 169.308594 151.257812 170.316406 C 151.089844 171.328125 151.003906 172.347656 151.003906 173.378906 C 151.003906 174.40625 151.089844 175.425781 151.257812 176.4375 C 151.425781 177.445312 151.671875 178.425781 152.003906 179.378906 C 152.332031 180.328125 152.734375 181.230469 153.214844 182.089844 C 153.691406 182.945312 154.234375 183.734375 154.84375 184.464844 C 155.449219 185.191406 156.113281 185.84375 156.828125 186.414062 C 157.542969 186.984375 158.296875 187.46875 159.09375 187.863281 C 159.886719 188.257812 160.707031 188.554688 161.550781 188.753906 C 162.394531 188.957031 163.246094 189.054688 164.105469 189.054688 C 164.964844 189.054688 165.820312 188.957031 166.660156 188.753906 C 167.503906 188.554688 168.324219 188.257812 169.121094 187.863281 C 169.914062 187.46875 170.667969 186.984375 171.382812 186.414062 C 172.101562 185.84375 172.761719 185.191406 173.371094 184.464844 C 173.976562 183.734375 174.519531 182.945312 175 182.089844 C 175.476562 181.230469 175.878906 180.328125 176.210938 179.378906 C 176.539062 178.425781 176.789062 177.445312 176.957031 176.4375 C 177.121094 175.425781 177.207031 174.40625 177.207031 173.378906 C 177.207031 172.347656 177.121094 171.328125 176.957031 170.316406 C 176.789062 169.308594 176.539062 168.328125 176.210938 167.375 C 175.878906 166.425781 175.476562 165.523438 175 164.664062 C 174.519531 163.808594 173.976562 163.019531 173.371094 162.289062 C 172.761719 161.5625 172.101562 160.910156 171.382812 160.339844 C 170.667969 159.769531 169.914062 159.285156 169.121094 158.890625 C 168.324219 158.496094 167.503906 158.199219 166.660156 158 C 165.820312 157.796875 164.964844 157.699219 164.105469 157.699219 Z M 211.269531 157.699219 C 210.410156 157.699219 209.554688 157.796875 208.714844 158 C 207.871094 158.199219 207.050781 158.496094 206.253906 158.890625 C 205.460938 159.285156 204.707031 159.769531 203.992188 160.339844 C 203.273438 160.910156 202.613281 161.5625 202.003906 162.289062 C 201.398438 163.019531 200.855469 163.808594 200.375 164.664062 C 199.898438 165.523438 199.496094 166.425781 199.164062 167.375 C 198.835938 168.328125 198.585938 169.308594 198.417969 170.316406 C 198.25 171.328125 198.167969 172.347656 198.167969 173.378906 C 198.167969 174.40625 198.25 175.425781 198.417969 176.4375 C 198.585938 177.445312 198.835938 178.425781 199.164062 179.378906 C 199.496094 180.328125 199.898438 181.230469 200.375 182.089844 C 200.855469 182.945312 201.398438 183.734375 202.003906 184.464844 C 202.613281 185.191406 203.273438 185.84375 203.992188 186.414062 C 204.707031 186.984375 205.460938 187.46875 206.253906 187.863281 C 207.050781 188.257812 207.871094 188.554688 208.714844 188.753906 C 209.554688 188.957031 210.410156 189.054688 211.269531 189.054688 C 212.128906 189.054688 212.980469 188.957031 213.824219 188.753906 C 214.667969 188.554688 215.488281 188.257812 216.28125 187.863281 C 217.078125 187.46875 217.832031 186.984375 218.546875 186.414062 C 219.261719 185.84375 219.925781 185.191406 220.53125 184.464844 C 221.140625 183.734375 221.683594 182.945312 222.160156 182.089844 C 222.640625 181.230469 223.042969 180.328125 223.371094 179.378906 C 223.703125 178.425781 223.949219 177.445312 224.117188 176.4375 C 224.285156 175.425781 224.371094 174.40625 224.371094 173.378906 C 224.371094 172.347656 224.285156 171.328125 224.117188 170.316406 C 223.949219 169.308594 223.703125 168.328125 223.371094 167.375 C 223.042969 166.425781 222.640625 165.523438 222.160156 164.664062 C 221.683594 163.808594 221.140625 163.019531 220.53125 162.289062 C 219.925781 161.5625 219.261719 160.910156 218.546875 160.339844 C 217.832031 159.769531 217.078125 159.285156 216.28125 158.890625 C 215.488281 158.496094 214.667969 158.199219 213.824219 158 C 212.980469 157.796875 212.128906 157.699219 211.269531 157.699219 Z M 211.269531 157.699219 " fill-opacity="1" fill-rule="nonzero"/></g><g fill="#ffffff" fill-opacity="1"><g transform="translate(104.466794, 256.482962)"><g><path d="M 1.839844 -14 C 1.839844 -6.238281 8.078125 0.398438 15.960938 0.519531 L 15.960938 -3.71875 C 10.398438 -3.839844 6.71875 -8.960938 6.71875 -14 C 6.71875 -19.078125 10.359375 -24.160156 15.960938 -24.277344 L 15.960938 -28.519531 C 8 -28.359375 1.839844 -21.757812 1.839844 -14 Z M 22.71875 -5.917969 C 21.199219 -4.71875 18.839844 -3.800781 16.640625 -3.71875 L 16.640625 0.519531 C 20.480469 0.359375 24.4375 -1.238281 26.917969 -3.679688 C 27.359375 -4.121094 27.558594 -4.480469 27.558594 -5.121094 L 27.558594 -14.199219 C 27.558594 -14.839844 27.398438 -15.039062 26.71875 -15.039062 L 16.957031 -15.039062 C 16.320312 -15.039062 16.117188 -14.839844 16.117188 -14.199219 L 16.117188 -11.757812 C 16.117188 -11.078125 16.320312 -10.917969 16.957031 -10.917969 L 22.71875 -10.917969 Z M 26.558594 -23.199219 C 27 -23.71875 27.117188 -23.957031 26.636719 -24.4375 C 24.199219 -26.757812 20.558594 -28.359375 16.640625 -28.519531 L 16.640625 -24.277344 C 19.238281 -24.160156 21.796875 -22.878906 23.480469 -21.117188 C 23.679688 -20.917969 23.878906 -20.796875 24.039062 -20.796875 C 24.277344 -20.796875 24.476562 -20.957031 24.71875 -21.199219 Z M 26.558594 -23.199219 "/></g></g></g><g fill="#ffffff" fill-opacity="1"><g transform="translate(134.42382, 256.482962)"><g><path d="M 12.640625 -16.71875 C 15.839844 -16.519531 18.359375 -13.71875 18.359375 -10.160156 C 18.359375 -6.597656 15.839844 -3.800781 12.640625 -3.558594 L 12.640625 0.441406 C 18.4375 0.199219 22.878906 -4.519531 22.878906 -10.160156 C 22.878906 -15.800781 18.398438 -20.597656 12.640625 -20.796875 Z M 11.960938 -3.558594 C 8.800781 -3.757812 6.238281 -6.597656 6.238281 -10.160156 C 6.238281 -13.878906 8.917969 -16.558594 11.960938 -16.71875 L 11.960938 -20.796875 C 6.28125 -20.597656 1.71875 -15.878906 1.71875 -10.160156 C 1.71875 -4.480469 6.28125 0.238281 11.960938 0.441406 Z M 11.960938 -3.558594 "/></g></g></g><g fill="#ffffff" fill-opacity="1"><g transform="translate(159.021372, 256.482962)"><g><path d="M 3.558594 -0.839844 C 3.558594 -0.199219 3.757812 0 4.398438 0 L 7.558594 0 C 8.199219 0 8.398438 -0.199219 8.398438 -0.839844 L 8.398438 -27.160156 C 8.398438 -27.796875 8.238281 -28 7.558594 -28 L 4.398438 -28 C 3.757812 -28 3.558594 -27.796875 3.558594 -27.160156 Z M 3.558594 -0.839844 "/></g></g></g><g fill="#ffffff" fill-opacity="1"><g transform="translate(170.980184, 256.482962)"><g><path d="M 21.4375 -11.558594 C 21.4375 -18.4375 18.078125 -20.796875 13.679688 -20.796875 C 11.800781 -20.796875 10.121094 -20.117188 8.757812 -18.679688 L 8.757812 -14.320312 C 9.558594 -15.960938 11.039062 -16.71875 12.519531 -16.71875 C 15.320312 -16.71875 16.878906 -14.800781 16.878906 -10.558594 L 16.878906 -0.839844 C 16.878906 -0.199219 17.078125 0 17.71875 0 L 20.597656 0 C 21.238281 0 21.4375 -0.199219 21.4375 -0.839844 Z M 3.480469 -0.839844 C 3.480469 -0.199219 3.679688 0 4.320312 0 L 7.199219 0 C 7.839844 0 8.039062 -0.199219 8.039062 -0.839844 L 8.039062 -18.757812 L 7.320312 -19.878906 C 7 -20.238281 6.519531 -20.359375 5.757812 -20.359375 L 4.320312 -20.359375 C 3.679688 -20.359375 3.480469 -20.160156 3.480469 -19.519531 Z M 3.480469 -0.839844 "/></g></g></g><g fill="#ffffff" fill-opacity="1"><g transform="translate(195.057796, 256.482962)"><g><path d="M 10.960938 0.441406 C 13.277344 0.441406 15.558594 -0.480469 16.917969 -1.878906 L 16.917969 -6.878906 C 15.679688 -4.398438 13.597656 -3.558594 11.960938 -3.558594 C 8.640625 -3.558594 6.238281 -6.441406 6.238281 -10.160156 C 6.238281 -13.757812 8.640625 -16.71875 11.960938 -16.71875 C 14 -16.71875 15.839844 -15.597656 16.917969 -13.398438 L 16.917969 -18.117188 C 15.640625 -19.679688 13.359375 -20.796875 10.960938 -20.796875 C 5.480469 -20.796875 1.71875 -16 1.71875 -10.160156 C 1.71875 -4.441406 5.480469 0.441406 10.960938 0.441406 Z M 22.199219 -28.679688 C 22.199219 -29.316406 22 -29.519531 21.359375 -29.519531 L 18.480469 -29.519531 C 17.800781 -29.519531 17.640625 -29.316406 17.640625 -28.679688 L 17.640625 -1.761719 L 18.398438 -0.679688 C 18.878906 -0.199219 19.4375 0 19.957031 0 L 21.359375 0 C 22 0 22.199219 -0.199219 22.199219 -0.839844 Z M 22.199219 -28.679688 "/></g></g></g><g fill="#ffffff" fill-opacity="1"><g transform="translate(220.53526, 256.482962)"><g><path d="M 7.839844 0 C 8.480469 0 8.679688 -0.199219 8.679688 -0.839844 L 8.679688 -19.519531 C 8.679688 -20.160156 8.480469 -20.359375 7.839844 -20.359375 L 4.960938 -20.359375 C 4.320312 -20.359375 4.121094 -20.160156 4.121094 -19.519531 L 4.121094 -0.839844 C 4.121094 -0.199219 4.320312 0 4.960938 0 Z M 6.359375 -29.558594 C 4.800781 -29.558594 3.558594 -28.277344 3.558594 -26.71875 C 3.558594 -25.160156 4.800781 -23.957031 6.359375 -23.957031 C 7.878906 -23.957031 9.160156 -25.160156 9.160156 -26.71875 C 9.160156 -28.277344 7.878906 -29.558594 6.359375 -29.558594 Z M 6.359375 -29.558594 "/></g></g></g><g fill="#ffffff" fill-opacity="1"><g transform="translate(233.253994, 256.482962)"><g><path d="M 19.277344 -4.917969 C 19.078125 -5.160156 18.917969 -5.28125 18.757812 -5.28125 C 18.558594 -5.28125 18.359375 -5.160156 18.039062 -5 C 15.960938 -3.800781 14 -3.480469 12.558594 -3.480469 C 9.078125 -3.480469 6.398438 -6.28125 6.398438 -10 L 6.398438 -10.28125 C 6.398438 -14.078125 8.597656 -16.839844 11.800781 -17.039062 L 11.800781 -20.796875 C 6.121094 -20.597656 1.71875 -15.71875 1.71875 -10.160156 C 1.71875 -4.320312 6.398438 0.441406 12.4375 0.441406 C 15.398438 0.441406 18.679688 -0.558594 20.558594 -2.359375 C 20.917969 -2.761719 20.839844 -3 20.4375 -3.480469 Z M 22.199219 -9.558594 C 22.199219 -15.398438 18.917969 -20.640625 12.480469 -20.796875 L 12.480469 -17.039062 C 15.71875 -16.878906 17.277344 -14.039062 17.558594 -11.679688 L 7.238281 -11.679688 C 7.039062 -10.757812 7.039062 -9.597656 7.238281 -8.679688 L 21.398438 -8.679688 C 22.078125 -8.679688 22.199219 -8.917969 22.199219 -9.558594 Z M 22.199219 -9.558594 "/></g></g></g><g fill="#ffffff" fill-opacity="1"><g transform="translate(256.931647, 256.482962)"><g><path d="M 8.121094 -9.71875 C 8.800781 -9.71875 9 -9.917969 9 -10.558594 L 9.597656 -27.160156 C 9.597656 -27.796875 9.4375 -28 8.757812 -28 L 4.839844 -28 C 4.199219 -28 4 -27.796875 4 -27.160156 L 4.640625 -10.558594 C 4.640625 -9.917969 4.800781 -9.71875 5.480469 -9.71875 Z M 9.839844 -2.558594 C 9.839844 -4.28125 8.480469 -5.640625 6.757812 -5.640625 C 5.078125 -5.640625 3.757812 -4.28125 3.757812 -2.558594 C 3.757812 -0.878906 5.078125 0.441406 6.757812 0.441406 C 8.480469 0.441406 9.839844 -0.878906 9.839844 -2.558594 Z M 9.839844 -2.558594 "/></g></g></g></svg>