<svg xmlns="http://www.w3.org/2000/svg" xmlns:xlink="http://www.w3.org/1999/xlink" width="500" zoomAndPan="magnify" viewBox="0 0 375 374.999991" height="500" preserveAspectRatio="xMidYMid meet" version="1.0"><defs><g/></defs><g fill="#ffffff" fill-opacity="1"><g transform="translate(104.466794, 197.999987)"><g><path d="M 1.839844 -14 C 1.839844 -6.238281 8.078125 0.398438 15.960938 0.519531 L 15.960938 -3.71875 C 10.398438 -3.839844 6.71875 -8.960938 6.71875 -14 C 6.71875 -19.078125 10.359375 -24.160156 15.960938 -24.277344 L 15.960938 -28.519531 C 8 -28.359375 1.839844 -21.757812 1.839844 -14 Z M 22.71875 -5.917969 C 21.199219 -4.71875 18.839844 -3.800781 16.640625 -3.71875 L 16.640625 0.519531 C 20.480469 0.359375 24.4375 -1.238281 26.917969 -3.679688 C 27.359375 -4.121094 27.558594 -4.480469 27.558594 -5.121094 L 27.558594 -14.199219 C 27.558594 -14.839844 27.398438 -15.039062 26.71875 -15.039062 L 16.957031 -15.039062 C 16.320312 -15.039062 16.117188 -14.839844 16.117188 -14.199219 L 16.117188 -11.757812 C 16.117188 -11.078125 16.320312 -10.917969 16.957031 -10.917969 L 22.71875 -10.917969 Z M 26.558594 -23.199219 C 27 -23.71875 27.117188 -23.957031 26.636719 -24.4375 C 24.199219 -26.757812 20.558594 -28.359375 16.640625 -28.519531 L 16.640625 -24.277344 C 19.238281 -24.160156 21.796875 -22.878906 23.480469 -21.117188 C 23.679688 -20.917969 23.878906 -20.796875 24.039062 -20.796875 C 24.277344 -20.796875 24.476562 -20.957031 24.71875 -21.199219 Z M 26.558594 -23.199219 "/></g></g></g><g fill="#ffffff" fill-opacity="1"><g transform="translate(134.42382, 197.999987)"><g><path d="M 12.640625 -16.71875 C 15.839844 -16.519531 18.359375 -13.71875 18.359375 -10.160156 C 18.359375 -6.597656 15.839844 -3.800781 12.640625 -3.558594 L 12.640625 0.441406 C 18.4375 0.199219 22.878906 -4.519531 22.878906 -10.160156 C 22.878906 -15.800781 18.398438 -20.597656 12.640625 -20.796875 Z M 11.960938 -3.558594 C 8.800781 -3.757812 6.238281 -6.597656 6.238281 -10.160156 C 6.238281 -13.878906 8.917969 -16.558594 11.960938 -16.71875 L 11.960938 -20.796875 C 6.28125 -20.597656 1.71875 -15.878906 1.71875 -10.160156 C 1.71875 -4.480469 6.28125 0.238281 11.960938 0.441406 Z M 11.960938 -3.558594 "/></g></g></g><g fill="#ffffff" fill-opacity="1"><g transform="translate(159.021372, 197.999987)"><g><path d="M 3.558594 -0.839844 C 3.558594 -0.199219 3.757812 0 4.398438 0 L 7.558594 0 C 8.199219 0 8.398438 -0.199219 8.398438 -0.839844 L 8.398438 -27.160156 C 8.398438 -27.796875 8.238281 -28 7.558594 -28 L 4.398438 -28 C 3.757812 -28 3.558594 -27.796875 3.558594 -27.160156 Z M 3.558594 -0.839844 "/></g></g></g><g fill="#ffffff" fill-opacity="1"><g transform="translate(170.980184, 197.999987)"><g><path d="M 21.4375 -11.558594 C 21.4375 -18.4375 18.078125 -20.796875 13.679688 -20.796875 C 11.800781 -20.796875 10.121094 -20.117188 8.757812 -18.679688 L 8.757812 -14.320312 C 9.558594 -15.960938 11.039062 -16.71875 12.519531 -16.71875 C 15.320312 -16.71875 16.878906 -14.800781 16.878906 -10.558594 L 16.878906 -0.839844 C 16.878906 -0.199219 17.078125 0 17.71875 0 L 20.597656 0 C 21.238281 0 21.4375 -0.199219 21.4375 -0.839844 Z M 3.480469 -0.839844 C 3.480469 -0.199219 3.679688 0 4.320312 0 L 7.199219 0 C 7.839844 0 8.039062 -0.199219 8.039062 -0.839844 L 8.039062 -18.757812 L 7.320312 -19.878906 C 7 -20.238281 6.519531 -20.359375 5.757812 -20.359375 L 4.320312 -20.359375 C 3.679688 -20.359375 3.480469 -20.160156 3.480469 -19.519531 Z M 3.480469 -0.839844 "/></g></g></g><g fill="#ffffff" fill-opacity="1"><g transform="translate(195.057796, 197.999987)"><g><path d="M 10.960938 0.441406 C 13.277344 0.441406 15.558594 -0.480469 16.917969 -1.878906 L 16.917969 -6.878906 C 15.679688 -4.398438 13.597656 -3.558594 11.960938 -3.558594 C 8.640625 -3.558594 6.238281 -6.441406 6.238281 -10.160156 C 6.238281 -13.757812 8.640625 -16.71875 11.960938 -16.71875 C 14 -16.71875 15.839844 -15.597656 16.917969 -13.398438 L 16.917969 -18.117188 C 15.640625 -19.679688 13.359375 -20.796875 10.960938 -20.796875 C 5.480469 -20.796875 1.71875 -16 1.71875 -10.160156 C 1.71875 -4.441406 5.480469 0.441406 10.960938 0.441406 Z M 22.199219 -28.679688 C 22.199219 -29.316406 22 -29.519531 21.359375 -29.519531 L 18.480469 -29.519531 C 17.800781 -29.519531 17.640625 -29.316406 17.640625 -28.679688 L 17.640625 -1.761719 L 18.398438 -0.679688 C 18.878906 -0.199219 19.4375 0 19.957031 0 L 21.359375 0 C 22 0 22.199219 -0.199219 22.199219 -0.839844 Z M 22.199219 -28.679688 "/></g></g></g><g fill="#ffffff" fill-opacity="1"><g transform="translate(220.53526, 197.999987)"><g><path d="M 7.839844 0 C 8.480469 0 8.679688 -0.199219 8.679688 -0.839844 L 8.679688 -19.519531 C 8.679688 -20.160156 8.480469 -20.359375 7.839844 -20.359375 L 4.960938 -20.359375 C 4.320312 -20.359375 4.121094 -20.160156 4.121094 -19.519531 L 4.121094 -0.839844 C 4.121094 -0.199219 4.320312 0 4.960938 0 Z M 6.359375 -29.558594 C 4.800781 -29.558594 3.558594 -28.277344 3.558594 -26.71875 C 3.558594 -25.160156 4.800781 -23.957031 6.359375 -23.957031 C 7.878906 -23.957031 9.160156 -25.160156 9.160156 -26.71875 C 9.160156 -28.277344 7.878906 -29.558594 6.359375 -29.558594 Z M 6.359375 -29.558594 "/></g></g></g><g fill="#ffffff" fill-opacity="1"><g transform="translate(233.253994, 197.999987)"><g><path d="M 19.277344 -4.917969 C 19.078125 -5.160156 18.917969 -5.28125 18.757812 -5.28125 C 18.558594 -5.28125 18.359375 -5.160156 18.039062 -5 C 15.960938 -3.800781 14 -3.480469 12.558594 -3.480469 C 9.078125 -3.480469 6.398438 -6.28125 6.398438 -10 L 6.398438 -10.28125 C 6.398438 -14.078125 8.597656 -16.839844 11.800781 -17.039062 L 11.800781 -20.796875 C 6.121094 -20.597656 1.71875 -15.71875 1.71875 -10.160156 C 1.71875 -4.320312 6.398438 0.441406 12.4375 0.441406 C 15.398438 0.441406 18.679688 -0.558594 20.558594 -2.359375 C 20.917969 -2.761719 20.839844 -3 20.4375 -3.480469 Z M 22.199219 -9.558594 C 22.199219 -15.398438 18.917969 -20.640625 12.480469 -20.796875 L 12.480469 -17.039062 C 15.71875 -16.878906 17.277344 -14.039062 17.558594 -11.679688 L 7.238281 -11.679688 C 7.039062 -10.757812 7.039062 -9.597656 7.238281 -8.679688 L 21.398438 -8.679688 C 22.078125 -8.679688 22.199219 -8.917969 22.199219 -9.558594 Z M 22.199219 -9.558594 "/></g></g></g><g fill="#ffffff" fill-opacity="1"><g transform="translate(256.931647, 197.999987)"><g><path d="M 8.121094 -9.71875 C 8.800781 -9.71875 9 -9.917969 9 -10.558594 L 9.597656 -27.160156 C 9.597656 -27.796875 9.4375 -28 8.757812 -28 L 4.839844 -28 C 4.199219 -28 4 -27.796875 4 -27.160156 L 4.640625 -10.558594 C 4.640625 -9.917969 4.800781 -9.71875 5.480469 -9.71875 Z M 9.839844 -2.558594 C 9.839844 -4.28125 8.480469 -5.640625 6.757812 -5.640625 C 5.078125 -5.640625 3.757812 -4.28125 3.757812 -2.558594 C 3.757812 -0.878906 5.078125 0.441406 6.757812 0.441406 C 8.480469 0.441406 9.839844 -0.878906 9.839844 -2.558594 Z M 9.839844 -2.558594 "/></g></g></g></svg>